<mxfile host="app.diagrams.net" modified="2024-07-17T05:12:09.352Z" agent="Mozilla/5.0 (Windows NT 10.0; Win64; x64) AppleWebKit/537.36 (KHTML, like Gecko) Chrome/126.0.0.0 Safari/537.36" version="24.7.0" etag="OvlOnY8GAPH_KcRecbRn" type="device">
  <diagram id="HOhN0hw9ioui7flDsnuk" name="Page-1">
    <mxGraphModel dx="3435" dy="1145" grid="1" gridSize="10" guides="1" tooltips="1" connect="1" arrows="1" fold="1" page="1" pageScale="1" pageWidth="850" pageHeight="1100" math="0" shadow="0">
      <root>
        <mxCell id="0" />
        <mxCell id="1" parent="0" />
        <mxCell id="hYostSX41Q3Cd5_vRPfv-336" value="Plant" style="swimlane;fontStyle=1;align=center;verticalAlign=top;childLayout=stackLayout;horizontal=1;startSize=26;horizontalStack=0;resizeParent=1;resizeParentMax=0;resizeLast=0;collapsible=1;marginBottom=0;whiteSpace=wrap;html=1;" vertex="1" parent="1">
          <mxGeometry x="345" y="40" width="160" height="104" as="geometry" />
        </mxCell>
        <mxCell id="hYostSX41Q3Cd5_vRPfv-337" value="- height: float&lt;div&gt;- age: int &lt;/div&gt;" style="text;strokeColor=none;fillColor=none;align=left;verticalAlign=top;spacingLeft=4;spacingRight=4;overflow=hidden;rotatable=0;points=[[0,0.5],[1,0.5]];portConstraint=eastwest;whiteSpace=wrap;html=1;" vertex="1" parent="hYostSX41Q3Cd5_vRPfv-336">
          <mxGeometry y="26" width="160" height="44" as="geometry" />
        </mxCell>
        <mxCell id="hYostSX41Q3Cd5_vRPfv-338" value="" style="line;strokeWidth=1;fillColor=none;align=left;verticalAlign=middle;spacingTop=-1;spacingLeft=3;spacingRight=3;rotatable=0;labelPosition=right;points=[];portConstraint=eastwest;strokeColor=inherit;" vertex="1" parent="hYostSX41Q3Cd5_vRPfv-336">
          <mxGeometry y="70" width="160" height="8" as="geometry" />
        </mxCell>
        <mxCell id="hYostSX41Q3Cd5_vRPfv-339" value="+ grow(): void" style="text;strokeColor=none;fillColor=none;align=left;verticalAlign=top;spacingLeft=4;spacingRight=4;overflow=hidden;rotatable=0;points=[[0,0.5],[1,0.5]];portConstraint=eastwest;whiteSpace=wrap;html=1;" vertex="1" parent="hYostSX41Q3Cd5_vRPfv-336">
          <mxGeometry y="78" width="160" height="26" as="geometry" />
        </mxCell>
        <mxCell id="hYostSX41Q3Cd5_vRPfv-340" value="Roots&lt;div&gt;&lt;br&gt;&lt;/div&gt;" style="swimlane;fontStyle=1;align=center;verticalAlign=top;childLayout=stackLayout;horizontal=1;startSize=26;horizontalStack=0;resizeParent=1;resizeParentMax=0;resizeLast=0;collapsible=1;marginBottom=0;whiteSpace=wrap;html=1;" vertex="1" parent="1">
          <mxGeometry x="345" y="190" width="160" height="94" as="geometry" />
        </mxCell>
        <mxCell id="hYostSX41Q3Cd5_vRPfv-341" value="- length: float&lt;div&gt;- depth: float&lt;br&gt;&lt;/div&gt;" style="text;strokeColor=none;fillColor=none;align=left;verticalAlign=top;spacingLeft=4;spacingRight=4;overflow=hidden;rotatable=0;points=[[0,0.5],[1,0.5]];portConstraint=eastwest;whiteSpace=wrap;html=1;" vertex="1" parent="hYostSX41Q3Cd5_vRPfv-340">
          <mxGeometry y="26" width="160" height="34" as="geometry" />
        </mxCell>
        <mxCell id="hYostSX41Q3Cd5_vRPfv-342" value="" style="line;strokeWidth=1;fillColor=none;align=left;verticalAlign=middle;spacingTop=-1;spacingLeft=3;spacingRight=3;rotatable=0;labelPosition=right;points=[];portConstraint=eastwest;strokeColor=inherit;" vertex="1" parent="hYostSX41Q3Cd5_vRPfv-340">
          <mxGeometry y="60" width="160" height="8" as="geometry" />
        </mxCell>
        <mxCell id="hYostSX41Q3Cd5_vRPfv-343" value="+ absorbWater(): void" style="text;strokeColor=none;fillColor=none;align=left;verticalAlign=top;spacingLeft=4;spacingRight=4;overflow=hidden;rotatable=0;points=[[0,0.5],[1,0.5]];portConstraint=eastwest;whiteSpace=wrap;html=1;" vertex="1" parent="hYostSX41Q3Cd5_vRPfv-340">
          <mxGeometry y="68" width="160" height="26" as="geometry" />
        </mxCell>
        <mxCell id="hYostSX41Q3Cd5_vRPfv-344" style="edgeStyle=orthogonalEdgeStyle;rounded=0;orthogonalLoop=1;jettySize=auto;html=1;entryX=1;entryY=0.5;entryDx=0;entryDy=0;" edge="1" parent="1" source="hYostSX41Q3Cd5_vRPfv-345" target="hYostSX41Q3Cd5_vRPfv-339">
          <mxGeometry relative="1" as="geometry" />
        </mxCell>
        <mxCell id="hYostSX41Q3Cd5_vRPfv-345" value="&lt;div&gt;Stem&lt;/div&gt;" style="swimlane;fontStyle=1;align=center;verticalAlign=top;childLayout=stackLayout;horizontal=1;startSize=26;horizontalStack=0;resizeParent=1;resizeParentMax=0;resizeLast=0;collapsible=1;marginBottom=0;whiteSpace=wrap;html=1;" vertex="1" parent="1">
          <mxGeometry x="560" y="190" width="160" height="94" as="geometry" />
        </mxCell>
        <mxCell id="hYostSX41Q3Cd5_vRPfv-346" value="- diameter: float&lt;div&gt;- length: float&lt;br&gt;&lt;/div&gt;" style="text;strokeColor=none;fillColor=none;align=left;verticalAlign=top;spacingLeft=4;spacingRight=4;overflow=hidden;rotatable=0;points=[[0,0.5],[1,0.5]];portConstraint=eastwest;whiteSpace=wrap;html=1;" vertex="1" parent="hYostSX41Q3Cd5_vRPfv-345">
          <mxGeometry y="26" width="160" height="34" as="geometry" />
        </mxCell>
        <mxCell id="hYostSX41Q3Cd5_vRPfv-347" value="" style="line;strokeWidth=1;fillColor=none;align=left;verticalAlign=middle;spacingTop=-1;spacingLeft=3;spacingRight=3;rotatable=0;labelPosition=right;points=[];portConstraint=eastwest;strokeColor=inherit;" vertex="1" parent="hYostSX41Q3Cd5_vRPfv-345">
          <mxGeometry y="60" width="160" height="8" as="geometry" />
        </mxCell>
        <mxCell id="hYostSX41Q3Cd5_vRPfv-348" value="+ supportPlant(): void" style="text;strokeColor=none;fillColor=none;align=left;verticalAlign=top;spacingLeft=4;spacingRight=4;overflow=hidden;rotatable=0;points=[[0,0.5],[1,0.5]];portConstraint=eastwest;whiteSpace=wrap;html=1;" vertex="1" parent="hYostSX41Q3Cd5_vRPfv-345">
          <mxGeometry y="68" width="160" height="26" as="geometry" />
        </mxCell>
        <mxCell id="hYostSX41Q3Cd5_vRPfv-349" style="edgeStyle=orthogonalEdgeStyle;rounded=0;orthogonalLoop=1;jettySize=auto;html=1;exitX=0.5;exitY=0;exitDx=0;exitDy=0;entryX=0;entryY=0.5;entryDx=0;entryDy=0;" edge="1" parent="1" source="hYostSX41Q3Cd5_vRPfv-350" target="hYostSX41Q3Cd5_vRPfv-339">
          <mxGeometry relative="1" as="geometry">
            <mxPoint x="210.47058823529414" y="120" as="targetPoint" />
          </mxGeometry>
        </mxCell>
        <mxCell id="hYostSX41Q3Cd5_vRPfv-350" value="&lt;div&gt;Leaves&lt;/div&gt;" style="swimlane;fontStyle=1;align=center;verticalAlign=top;childLayout=stackLayout;horizontal=1;startSize=26;horizontalStack=0;resizeParent=1;resizeParentMax=0;resizeLast=0;collapsible=1;marginBottom=0;whiteSpace=wrap;html=1;" vertex="1" parent="1">
          <mxGeometry x="130" y="190" width="160" height="104" as="geometry" />
        </mxCell>
        <mxCell id="hYostSX41Q3Cd5_vRPfv-351" value="- count: int&lt;br&gt;- area: float " style="text;strokeColor=none;fillColor=none;align=left;verticalAlign=top;spacingLeft=4;spacingRight=4;overflow=hidden;rotatable=0;points=[[0,0.5],[1,0.5]];portConstraint=eastwest;whiteSpace=wrap;html=1;" vertex="1" parent="hYostSX41Q3Cd5_vRPfv-350">
          <mxGeometry y="26" width="160" height="44" as="geometry" />
        </mxCell>
        <mxCell id="hYostSX41Q3Cd5_vRPfv-352" value="" style="line;strokeWidth=1;fillColor=none;align=left;verticalAlign=middle;spacingTop=-1;spacingLeft=3;spacingRight=3;rotatable=0;labelPosition=right;points=[];portConstraint=eastwest;strokeColor=inherit;" vertex="1" parent="hYostSX41Q3Cd5_vRPfv-350">
          <mxGeometry y="70" width="160" height="8" as="geometry" />
        </mxCell>
        <mxCell id="hYostSX41Q3Cd5_vRPfv-353" value="+ photosynthesize(): void" style="text;strokeColor=none;fillColor=none;align=left;verticalAlign=top;spacingLeft=4;spacingRight=4;overflow=hidden;rotatable=0;points=[[0,0.5],[1,0.5]];portConstraint=eastwest;whiteSpace=wrap;html=1;" vertex="1" parent="hYostSX41Q3Cd5_vRPfv-350">
          <mxGeometry y="78" width="160" height="26" as="geometry" />
        </mxCell>
        <mxCell id="hYostSX41Q3Cd5_vRPfv-354" style="edgeStyle=orthogonalEdgeStyle;rounded=0;orthogonalLoop=1;jettySize=auto;html=1;exitX=0.5;exitY=0;exitDx=0;exitDy=0;entryX=0;entryY=0.5;entryDx=0;entryDy=0;" edge="1" parent="1" source="hYostSX41Q3Cd5_vRPfv-355" target="hYostSX41Q3Cd5_vRPfv-337">
          <mxGeometry relative="1" as="geometry">
            <mxPoint y="70" as="targetPoint" />
          </mxGeometry>
        </mxCell>
        <mxCell id="hYostSX41Q3Cd5_vRPfv-355" value="&lt;div&gt;Flowers&lt;/div&gt;" style="swimlane;fontStyle=1;align=center;verticalAlign=top;childLayout=stackLayout;horizontal=1;startSize=26;horizontalStack=0;resizeParent=1;resizeParentMax=0;resizeLast=0;collapsible=1;marginBottom=0;whiteSpace=wrap;html=1;" vertex="1" parent="1">
          <mxGeometry x="-80" y="190" width="160" height="94" as="geometry" />
        </mxCell>
        <mxCell id="hYostSX41Q3Cd5_vRPfv-356" value="- count: int&lt;div&gt;- color: String&lt;br&gt;&lt;/div&gt;" style="text;strokeColor=none;fillColor=none;align=left;verticalAlign=top;spacingLeft=4;spacingRight=4;overflow=hidden;rotatable=0;points=[[0,0.5],[1,0.5]];portConstraint=eastwest;whiteSpace=wrap;html=1;" vertex="1" parent="hYostSX41Q3Cd5_vRPfv-355">
          <mxGeometry y="26" width="160" height="34" as="geometry" />
        </mxCell>
        <mxCell id="hYostSX41Q3Cd5_vRPfv-357" value="" style="line;strokeWidth=1;fillColor=none;align=left;verticalAlign=middle;spacingTop=-1;spacingLeft=3;spacingRight=3;rotatable=0;labelPosition=right;points=[];portConstraint=eastwest;strokeColor=inherit;" vertex="1" parent="hYostSX41Q3Cd5_vRPfv-355">
          <mxGeometry y="60" width="160" height="8" as="geometry" />
        </mxCell>
        <mxCell id="hYostSX41Q3Cd5_vRPfv-358" value="+ attractPollinators(): void" style="text;strokeColor=none;fillColor=none;align=left;verticalAlign=top;spacingLeft=4;spacingRight=4;overflow=hidden;rotatable=0;points=[[0,0.5],[1,0.5]];portConstraint=eastwest;whiteSpace=wrap;html=1;" vertex="1" parent="hYostSX41Q3Cd5_vRPfv-355">
          <mxGeometry y="68" width="160" height="26" as="geometry" />
        </mxCell>
        <mxCell id="hYostSX41Q3Cd5_vRPfv-359" style="edgeStyle=orthogonalEdgeStyle;rounded=0;orthogonalLoop=1;jettySize=auto;html=1;entryX=1;entryY=0.5;entryDx=0;entryDy=0;" edge="1" parent="1" source="hYostSX41Q3Cd5_vRPfv-360" target="hYostSX41Q3Cd5_vRPfv-337">
          <mxGeometry relative="1" as="geometry" />
        </mxCell>
        <mxCell id="hYostSX41Q3Cd5_vRPfv-360" value="&lt;div&gt;Fruits&lt;/div&gt;" style="swimlane;fontStyle=1;align=center;verticalAlign=top;childLayout=stackLayout;horizontal=1;startSize=26;horizontalStack=0;resizeParent=1;resizeParentMax=0;resizeLast=0;collapsible=1;marginBottom=0;whiteSpace=wrap;html=1;" vertex="1" parent="1">
          <mxGeometry x="770" y="190" width="160" height="94" as="geometry" />
        </mxCell>
        <mxCell id="hYostSX41Q3Cd5_vRPfv-361" value="- count: int&lt;div&gt;- type: String&amp;nbsp;&lt;br&gt;&lt;/div&gt;" style="text;strokeColor=none;fillColor=none;align=left;verticalAlign=top;spacingLeft=4;spacingRight=4;overflow=hidden;rotatable=0;points=[[0,0.5],[1,0.5]];portConstraint=eastwest;whiteSpace=wrap;html=1;" vertex="1" parent="hYostSX41Q3Cd5_vRPfv-360">
          <mxGeometry y="26" width="160" height="34" as="geometry" />
        </mxCell>
        <mxCell id="hYostSX41Q3Cd5_vRPfv-362" value="" style="line;strokeWidth=1;fillColor=none;align=left;verticalAlign=middle;spacingTop=-1;spacingLeft=3;spacingRight=3;rotatable=0;labelPosition=right;points=[];portConstraint=eastwest;strokeColor=inherit;" vertex="1" parent="hYostSX41Q3Cd5_vRPfv-360">
          <mxGeometry y="60" width="160" height="8" as="geometry" />
        </mxCell>
        <mxCell id="hYostSX41Q3Cd5_vRPfv-363" value="+ disperseSeeds(): void" style="text;strokeColor=none;fillColor=none;align=left;verticalAlign=top;spacingLeft=4;spacingRight=4;overflow=hidden;rotatable=0;points=[[0,0.5],[1,0.5]];portConstraint=eastwest;whiteSpace=wrap;html=1;" vertex="1" parent="hYostSX41Q3Cd5_vRPfv-360">
          <mxGeometry y="68" width="160" height="26" as="geometry" />
        </mxCell>
        <mxCell id="hYostSX41Q3Cd5_vRPfv-364" value="&lt;div&gt;Seeds&lt;/div&gt;" style="swimlane;fontStyle=1;align=center;verticalAlign=top;childLayout=stackLayout;horizontal=1;startSize=26;horizontalStack=0;resizeParent=1;resizeParentMax=0;resizeLast=0;collapsible=1;marginBottom=0;whiteSpace=wrap;html=1;" vertex="1" parent="1">
          <mxGeometry x="770" y="340" width="160" height="86" as="geometry" />
        </mxCell>
        <mxCell id="hYostSX41Q3Cd5_vRPfv-365" value="- count: int" style="text;strokeColor=none;fillColor=none;align=left;verticalAlign=top;spacingLeft=4;spacingRight=4;overflow=hidden;rotatable=0;points=[[0,0.5],[1,0.5]];portConstraint=eastwest;whiteSpace=wrap;html=1;" vertex="1" parent="hYostSX41Q3Cd5_vRPfv-364">
          <mxGeometry y="26" width="160" height="26" as="geometry" />
        </mxCell>
        <mxCell id="hYostSX41Q3Cd5_vRPfv-366" value="" style="line;strokeWidth=1;fillColor=none;align=left;verticalAlign=middle;spacingTop=-1;spacingLeft=3;spacingRight=3;rotatable=0;labelPosition=right;points=[];portConstraint=eastwest;strokeColor=inherit;" vertex="1" parent="hYostSX41Q3Cd5_vRPfv-364">
          <mxGeometry y="52" width="160" height="8" as="geometry" />
        </mxCell>
        <mxCell id="hYostSX41Q3Cd5_vRPfv-367" value="+ germinate(): void" style="text;strokeColor=none;fillColor=none;align=left;verticalAlign=top;spacingLeft=4;spacingRight=4;overflow=hidden;rotatable=0;points=[[0,0.5],[1,0.5]];portConstraint=eastwest;whiteSpace=wrap;html=1;" vertex="1" parent="hYostSX41Q3Cd5_vRPfv-364">
          <mxGeometry y="60" width="160" height="26" as="geometry" />
        </mxCell>
        <mxCell id="hYostSX41Q3Cd5_vRPfv-368" value="&lt;div&gt;Petals&lt;/div&gt;" style="swimlane;fontStyle=1;align=center;verticalAlign=top;childLayout=stackLayout;horizontal=1;startSize=26;horizontalStack=0;resizeParent=1;resizeParentMax=0;resizeLast=0;collapsible=1;marginBottom=0;whiteSpace=wrap;html=1;" vertex="1" parent="1">
          <mxGeometry x="-100" y="340" width="180" height="100" as="geometry" />
        </mxCell>
        <mxCell id="hYostSX41Q3Cd5_vRPfv-369" value="- count: int " style="text;strokeColor=none;fillColor=none;align=left;verticalAlign=top;spacingLeft=4;spacingRight=4;overflow=hidden;rotatable=0;points=[[0,0.5],[1,0.5]];portConstraint=eastwest;whiteSpace=wrap;html=1;" vertex="1" parent="hYostSX41Q3Cd5_vRPfv-368">
          <mxGeometry y="26" width="180" height="26" as="geometry" />
        </mxCell>
        <mxCell id="hYostSX41Q3Cd5_vRPfv-370" value="" style="line;strokeWidth=1;fillColor=none;align=left;verticalAlign=middle;spacingTop=-1;spacingLeft=3;spacingRight=3;rotatable=0;labelPosition=right;points=[];portConstraint=eastwest;strokeColor=inherit;" vertex="1" parent="hYostSX41Q3Cd5_vRPfv-368">
          <mxGeometry y="52" width="180" height="8" as="geometry" />
        </mxCell>
        <mxCell id="hYostSX41Q3Cd5_vRPfv-371" value="+ protectReproductiveParts(): void" style="text;strokeColor=none;fillColor=none;align=left;verticalAlign=top;spacingLeft=4;spacingRight=4;overflow=hidden;rotatable=0;points=[[0,0.5],[1,0.5]];portConstraint=eastwest;whiteSpace=wrap;html=1;" vertex="1" parent="hYostSX41Q3Cd5_vRPfv-368">
          <mxGeometry y="60" width="180" height="40" as="geometry" />
        </mxCell>
        <mxCell id="hYostSX41Q3Cd5_vRPfv-372" value="&lt;div&gt;Root Hairs&lt;/div&gt;" style="swimlane;fontStyle=1;align=center;verticalAlign=top;childLayout=stackLayout;horizontal=1;startSize=26;horizontalStack=0;resizeParent=1;resizeParentMax=0;resizeLast=0;collapsible=1;marginBottom=0;whiteSpace=wrap;html=1;" vertex="1" parent="1">
          <mxGeometry x="345" y="340" width="160" height="100" as="geometry" />
        </mxCell>
        <mxCell id="hYostSX41Q3Cd5_vRPfv-373" value="- count: int" style="text;strokeColor=none;fillColor=none;align=left;verticalAlign=top;spacingLeft=4;spacingRight=4;overflow=hidden;rotatable=0;points=[[0,0.5],[1,0.5]];portConstraint=eastwest;whiteSpace=wrap;html=1;" vertex="1" parent="hYostSX41Q3Cd5_vRPfv-372">
          <mxGeometry y="26" width="160" height="26" as="geometry" />
        </mxCell>
        <mxCell id="hYostSX41Q3Cd5_vRPfv-374" value="" style="line;strokeWidth=1;fillColor=none;align=left;verticalAlign=middle;spacingTop=-1;spacingLeft=3;spacingRight=3;rotatable=0;labelPosition=right;points=[];portConstraint=eastwest;strokeColor=inherit;" vertex="1" parent="hYostSX41Q3Cd5_vRPfv-372">
          <mxGeometry y="52" width="160" height="8" as="geometry" />
        </mxCell>
        <mxCell id="hYostSX41Q3Cd5_vRPfv-375" value="+ increaseSurfaceArea(): void " style="text;strokeColor=none;fillColor=none;align=left;verticalAlign=top;spacingLeft=4;spacingRight=4;overflow=hidden;rotatable=0;points=[[0,0.5],[1,0.5]];portConstraint=eastwest;whiteSpace=wrap;html=1;" vertex="1" parent="hYostSX41Q3Cd5_vRPfv-372">
          <mxGeometry y="60" width="160" height="40" as="geometry" />
        </mxCell>
        <mxCell id="hYostSX41Q3Cd5_vRPfv-376" value="&lt;div&gt;Veins&lt;/div&gt;" style="swimlane;fontStyle=1;align=center;verticalAlign=top;childLayout=stackLayout;horizontal=1;startSize=26;horizontalStack=0;resizeParent=1;resizeParentMax=0;resizeLast=0;collapsible=1;marginBottom=0;whiteSpace=wrap;html=1;" vertex="1" parent="1">
          <mxGeometry x="130" y="340" width="160" height="86" as="geometry" />
        </mxCell>
        <mxCell id="hYostSX41Q3Cd5_vRPfv-377" value="- pattern: String" style="text;strokeColor=none;fillColor=none;align=left;verticalAlign=top;spacingLeft=4;spacingRight=4;overflow=hidden;rotatable=0;points=[[0,0.5],[1,0.5]];portConstraint=eastwest;whiteSpace=wrap;html=1;" vertex="1" parent="hYostSX41Q3Cd5_vRPfv-376">
          <mxGeometry y="26" width="160" height="26" as="geometry" />
        </mxCell>
        <mxCell id="hYostSX41Q3Cd5_vRPfv-378" value="" style="line;strokeWidth=1;fillColor=none;align=left;verticalAlign=middle;spacingTop=-1;spacingLeft=3;spacingRight=3;rotatable=0;labelPosition=right;points=[];portConstraint=eastwest;strokeColor=inherit;" vertex="1" parent="hYostSX41Q3Cd5_vRPfv-376">
          <mxGeometry y="52" width="160" height="8" as="geometry" />
        </mxCell>
        <mxCell id="hYostSX41Q3Cd5_vRPfv-379" value="+ transportNutrients(): void" style="text;strokeColor=none;fillColor=none;align=left;verticalAlign=top;spacingLeft=4;spacingRight=4;overflow=hidden;rotatable=0;points=[[0,0.5],[1,0.5]];portConstraint=eastwest;whiteSpace=wrap;html=1;" vertex="1" parent="hYostSX41Q3Cd5_vRPfv-376">
          <mxGeometry y="60" width="160" height="26" as="geometry" />
        </mxCell>
        <mxCell id="hYostSX41Q3Cd5_vRPfv-380" value="&lt;div&gt;Bark&lt;/div&gt;" style="swimlane;fontStyle=1;align=center;verticalAlign=top;childLayout=stackLayout;horizontal=1;startSize=26;horizontalStack=0;resizeParent=1;resizeParentMax=0;resizeLast=0;collapsible=1;marginBottom=0;whiteSpace=wrap;html=1;" vertex="1" parent="1">
          <mxGeometry x="560" y="340" width="160" height="86" as="geometry" />
        </mxCell>
        <mxCell id="hYostSX41Q3Cd5_vRPfv-381" value="- thickness: float" style="text;strokeColor=none;fillColor=none;align=left;verticalAlign=top;spacingLeft=4;spacingRight=4;overflow=hidden;rotatable=0;points=[[0,0.5],[1,0.5]];portConstraint=eastwest;whiteSpace=wrap;html=1;" vertex="1" parent="hYostSX41Q3Cd5_vRPfv-380">
          <mxGeometry y="26" width="160" height="26" as="geometry" />
        </mxCell>
        <mxCell id="hYostSX41Q3Cd5_vRPfv-382" value="" style="line;strokeWidth=1;fillColor=none;align=left;verticalAlign=middle;spacingTop=-1;spacingLeft=3;spacingRight=3;rotatable=0;labelPosition=right;points=[];portConstraint=eastwest;strokeColor=inherit;" vertex="1" parent="hYostSX41Q3Cd5_vRPfv-380">
          <mxGeometry y="52" width="160" height="8" as="geometry" />
        </mxCell>
        <mxCell id="hYostSX41Q3Cd5_vRPfv-383" value="+ protectStem(): void" style="text;strokeColor=none;fillColor=none;align=left;verticalAlign=top;spacingLeft=4;spacingRight=4;overflow=hidden;rotatable=0;points=[[0,0.5],[1,0.5]];portConstraint=eastwest;whiteSpace=wrap;html=1;" vertex="1" parent="hYostSX41Q3Cd5_vRPfv-380">
          <mxGeometry y="60" width="160" height="26" as="geometry" />
        </mxCell>
        <mxCell id="hYostSX41Q3Cd5_vRPfv-384" value="" style="endArrow=classic;html=1;rounded=0;exitX=0.551;exitY=-0.002;exitDx=0;exitDy=0;entryX=0.496;entryY=1.07;entryDx=0;entryDy=0;entryPerimeter=0;exitPerimeter=0;" edge="1" parent="1" source="hYostSX41Q3Cd5_vRPfv-368" target="hYostSX41Q3Cd5_vRPfv-358">
          <mxGeometry width="50" height="50" relative="1" as="geometry">
            <mxPoint x="410" y="310" as="sourcePoint" />
            <mxPoint y="290" as="targetPoint" />
          </mxGeometry>
        </mxCell>
        <mxCell id="hYostSX41Q3Cd5_vRPfv-385" value="" style="endArrow=classic;html=1;rounded=0;exitX=0.5;exitY=0;exitDx=0;exitDy=0;entryX=0.5;entryY=1;entryDx=0;entryDy=0;" edge="1" parent="1" target="hYostSX41Q3Cd5_vRPfv-350">
          <mxGeometry width="50" height="50" relative="1" as="geometry">
            <mxPoint x="210.41" y="340" as="sourcePoint" />
            <mxPoint x="210" y="300" as="targetPoint" />
          </mxGeometry>
        </mxCell>
        <mxCell id="hYostSX41Q3Cd5_vRPfv-386" value="" style="endArrow=classic;html=1;rounded=0;exitX=0.5;exitY=0;exitDx=0;exitDy=0;entryX=0.506;entryY=0.965;entryDx=0;entryDy=0;entryPerimeter=0;" edge="1" parent="1" target="hYostSX41Q3Cd5_vRPfv-343">
          <mxGeometry width="50" height="50" relative="1" as="geometry">
            <mxPoint x="426" y="340" as="sourcePoint" />
            <mxPoint x="425" y="290" as="targetPoint" />
          </mxGeometry>
        </mxCell>
        <mxCell id="hYostSX41Q3Cd5_vRPfv-387" value="" style="endArrow=classic;html=1;rounded=0;exitX=0.5;exitY=0;exitDx=0;exitDy=0;entryX=0.501;entryY=1.006;entryDx=0;entryDy=0;entryPerimeter=0;" edge="1" parent="1" target="hYostSX41Q3Cd5_vRPfv-348">
          <mxGeometry width="50" height="50" relative="1" as="geometry">
            <mxPoint x="641" y="340" as="sourcePoint" />
            <mxPoint x="640" y="278" as="targetPoint" />
          </mxGeometry>
        </mxCell>
        <mxCell id="hYostSX41Q3Cd5_vRPfv-388" value="" style="endArrow=classic;html=1;rounded=0;exitX=0.5;exitY=0;exitDx=0;exitDy=0;entryX=0.503;entryY=1.005;entryDx=0;entryDy=0;entryPerimeter=0;" edge="1" parent="1" target="hYostSX41Q3Cd5_vRPfv-363">
          <mxGeometry width="50" height="50" relative="1" as="geometry">
            <mxPoint x="851" y="340" as="sourcePoint" />
            <mxPoint x="850" y="278" as="targetPoint" />
          </mxGeometry>
        </mxCell>
        <mxCell id="hYostSX41Q3Cd5_vRPfv-389" value="" style="endArrow=classic;html=1;rounded=0;exitX=0.5;exitY=0;exitDx=0;exitDy=0;entryX=0.5;entryY=1;entryDx=0;entryDy=0;" edge="1" parent="1" source="hYostSX41Q3Cd5_vRPfv-340" target="hYostSX41Q3Cd5_vRPfv-336">
          <mxGeometry width="50" height="50" relative="1" as="geometry">
            <mxPoint x="425" y="188" as="sourcePoint" />
            <mxPoint x="425" y="150" as="targetPoint" />
          </mxGeometry>
        </mxCell>
        <mxCell id="hYostSX41Q3Cd5_vRPfv-391" value="" style="endArrow=none;dashed=1;html=1;rounded=0;" edge="1" parent="1">
          <mxGeometry width="50" height="50" relative="1" as="geometry">
            <mxPoint x="-120" y="160" as="sourcePoint" />
            <mxPoint x="960" y="160" as="targetPoint" />
          </mxGeometry>
        </mxCell>
        <mxCell id="hYostSX41Q3Cd5_vRPfv-392" value="" style="endArrow=none;dashed=1;html=1;rounded=0;" edge="1" parent="1">
          <mxGeometry width="50" height="50" relative="1" as="geometry">
            <mxPoint x="-120" y="500" as="sourcePoint" />
            <mxPoint x="-120" y="160" as="targetPoint" />
          </mxGeometry>
        </mxCell>
        <mxCell id="hYostSX41Q3Cd5_vRPfv-393" value="" style="endArrow=none;dashed=1;html=1;rounded=0;" edge="1" parent="1">
          <mxGeometry width="50" height="50" relative="1" as="geometry">
            <mxPoint x="960" y="500" as="sourcePoint" />
            <mxPoint x="960" y="160" as="targetPoint" />
          </mxGeometry>
        </mxCell>
        <mxCell id="hYostSX41Q3Cd5_vRPfv-394" value="" style="endArrow=none;dashed=1;html=1;rounded=0;" edge="1" parent="1">
          <mxGeometry width="50" height="50" relative="1" as="geometry">
            <mxPoint x="-120" y="500" as="sourcePoint" />
            <mxPoint x="960" y="500" as="targetPoint" />
          </mxGeometry>
        </mxCell>
        <mxCell id="hYostSX41Q3Cd5_vRPfv-395" value="Components (&quot;HAS a&quot;)" style="text;html=1;align=center;verticalAlign=middle;resizable=0;points=[];autosize=1;strokeColor=none;fillColor=none;" vertex="1" parent="1">
          <mxGeometry x="350" y="458" width="150" height="30" as="geometry" />
        </mxCell>
        <mxCell id="hYostSX41Q3Cd5_vRPfv-396" value="Flowering Plant" style="swimlane;fontStyle=1;align=center;verticalAlign=top;childLayout=stackLayout;horizontal=1;startSize=26;horizontalStack=0;resizeParent=1;resizeParentMax=0;resizeLast=0;collapsible=1;marginBottom=0;whiteSpace=wrap;html=1;" vertex="1" parent="1">
          <mxGeometry x="-450" y="190" width="160" height="86" as="geometry" />
        </mxCell>
        <mxCell id="hYostSX41Q3Cd5_vRPfv-397" value="- bloomSeason: String" style="text;strokeColor=none;fillColor=none;align=left;verticalAlign=top;spacingLeft=4;spacingRight=4;overflow=hidden;rotatable=0;points=[[0,0.5],[1,0.5]];portConstraint=eastwest;whiteSpace=wrap;html=1;" vertex="1" parent="hYostSX41Q3Cd5_vRPfv-396">
          <mxGeometry y="26" width="160" height="26" as="geometry" />
        </mxCell>
        <mxCell id="hYostSX41Q3Cd5_vRPfv-398" value="" style="line;strokeWidth=1;fillColor=none;align=left;verticalAlign=middle;spacingTop=-1;spacingLeft=3;spacingRight=3;rotatable=0;labelPosition=right;points=[];portConstraint=eastwest;strokeColor=inherit;" vertex="1" parent="hYostSX41Q3Cd5_vRPfv-396">
          <mxGeometry y="52" width="160" height="8" as="geometry" />
        </mxCell>
        <mxCell id="hYostSX41Q3Cd5_vRPfv-399" value="+ bloom(): void " style="text;strokeColor=none;fillColor=none;align=left;verticalAlign=top;spacingLeft=4;spacingRight=4;overflow=hidden;rotatable=0;points=[[0,0.5],[1,0.5]];portConstraint=eastwest;whiteSpace=wrap;html=1;" vertex="1" parent="hYostSX41Q3Cd5_vRPfv-396">
          <mxGeometry y="60" width="160" height="26" as="geometry" />
        </mxCell>
        <mxCell id="hYostSX41Q3Cd5_vRPfv-400" value="Rose" style="swimlane;fontStyle=1;align=center;verticalAlign=top;childLayout=stackLayout;horizontal=1;startSize=26;horizontalStack=0;resizeParent=1;resizeParentMax=0;resizeLast=0;collapsible=1;marginBottom=0;whiteSpace=wrap;html=1;" vertex="1" parent="1">
          <mxGeometry x="-570" y="340" width="160" height="86" as="geometry" />
        </mxCell>
        <mxCell id="hYostSX41Q3Cd5_vRPfv-401" value=" - thornCount: int" style="text;strokeColor=none;fillColor=none;align=left;verticalAlign=top;spacingLeft=4;spacingRight=4;overflow=hidden;rotatable=0;points=[[0,0.5],[1,0.5]];portConstraint=eastwest;whiteSpace=wrap;html=1;" vertex="1" parent="hYostSX41Q3Cd5_vRPfv-400">
          <mxGeometry y="26" width="160" height="26" as="geometry" />
        </mxCell>
        <mxCell id="hYostSX41Q3Cd5_vRPfv-402" value="" style="line;strokeWidth=1;fillColor=none;align=left;verticalAlign=middle;spacingTop=-1;spacingLeft=3;spacingRight=3;rotatable=0;labelPosition=right;points=[];portConstraint=eastwest;strokeColor=inherit;" vertex="1" parent="hYostSX41Q3Cd5_vRPfv-400">
          <mxGeometry y="52" width="160" height="8" as="geometry" />
        </mxCell>
        <mxCell id="hYostSX41Q3Cd5_vRPfv-403" value="+ growThorns(): void" style="text;strokeColor=none;fillColor=none;align=left;verticalAlign=top;spacingLeft=4;spacingRight=4;overflow=hidden;rotatable=0;points=[[0,0.5],[1,0.5]];portConstraint=eastwest;whiteSpace=wrap;html=1;" vertex="1" parent="hYostSX41Q3Cd5_vRPfv-400">
          <mxGeometry y="60" width="160" height="26" as="geometry" />
        </mxCell>
        <mxCell id="hYostSX41Q3Cd5_vRPfv-404" value="Tulip" style="swimlane;fontStyle=1;align=center;verticalAlign=top;childLayout=stackLayout;horizontal=1;startSize=26;horizontalStack=0;resizeParent=1;resizeParentMax=0;resizeLast=0;collapsible=1;marginBottom=0;whiteSpace=wrap;html=1;" vertex="1" parent="1">
          <mxGeometry x="-330" y="340" width="160" height="86" as="geometry" />
        </mxCell>
        <mxCell id="hYostSX41Q3Cd5_vRPfv-405" value="- bulbSize: float" style="text;strokeColor=none;fillColor=none;align=left;verticalAlign=top;spacingLeft=4;spacingRight=4;overflow=hidden;rotatable=0;points=[[0,0.5],[1,0.5]];portConstraint=eastwest;whiteSpace=wrap;html=1;" vertex="1" parent="hYostSX41Q3Cd5_vRPfv-404">
          <mxGeometry y="26" width="160" height="26" as="geometry" />
        </mxCell>
        <mxCell id="hYostSX41Q3Cd5_vRPfv-406" value="" style="line;strokeWidth=1;fillColor=none;align=left;verticalAlign=middle;spacingTop=-1;spacingLeft=3;spacingRight=3;rotatable=0;labelPosition=right;points=[];portConstraint=eastwest;strokeColor=inherit;" vertex="1" parent="hYostSX41Q3Cd5_vRPfv-404">
          <mxGeometry y="52" width="160" height="8" as="geometry" />
        </mxCell>
        <mxCell id="hYostSX41Q3Cd5_vRPfv-407" value="+ growBulb(): void" style="text;strokeColor=none;fillColor=none;align=left;verticalAlign=top;spacingLeft=4;spacingRight=4;overflow=hidden;rotatable=0;points=[[0,0.5],[1,0.5]];portConstraint=eastwest;whiteSpace=wrap;html=1;" vertex="1" parent="hYostSX41Q3Cd5_vRPfv-404">
          <mxGeometry y="60" width="160" height="26" as="geometry" />
        </mxCell>
        <mxCell id="hYostSX41Q3Cd5_vRPfv-408" value="" style="endArrow=classic;html=1;rounded=0;exitX=0.5;exitY=0;exitDx=0;exitDy=0;entryX=0;entryY=0.5;entryDx=0;entryDy=0;" edge="1" parent="1" source="hYostSX41Q3Cd5_vRPfv-400" target="hYostSX41Q3Cd5_vRPfv-399">
          <mxGeometry width="50" height="50" relative="1" as="geometry">
            <mxPoint x="-430" y="330" as="sourcePoint" />
            <mxPoint x="-370" y="290" as="targetPoint" />
          </mxGeometry>
        </mxCell>
        <mxCell id="hYostSX41Q3Cd5_vRPfv-409" value="" style="endArrow=classic;html=1;rounded=0;exitX=0.5;exitY=0;exitDx=0;exitDy=0;entryX=1;entryY=0.5;entryDx=0;entryDy=0;" edge="1" parent="1" source="hYostSX41Q3Cd5_vRPfv-404" target="hYostSX41Q3Cd5_vRPfv-399">
          <mxGeometry width="50" height="50" relative="1" as="geometry">
            <mxPoint x="-430" y="330" as="sourcePoint" />
            <mxPoint x="-380" y="280" as="targetPoint" />
          </mxGeometry>
        </mxCell>
        <mxCell id="hYostSX41Q3Cd5_vRPfv-410" style="edgeStyle=orthogonalEdgeStyle;rounded=0;orthogonalLoop=1;jettySize=auto;html=1;entryX=-0.006;entryY=0.084;entryDx=0;entryDy=0;entryPerimeter=0;" edge="1" parent="1" source="hYostSX41Q3Cd5_vRPfv-396" target="hYostSX41Q3Cd5_vRPfv-337">
          <mxGeometry relative="1" as="geometry" />
        </mxCell>
        <mxCell id="hYostSX41Q3Cd5_vRPfv-411" value="Tree" style="swimlane;fontStyle=1;align=center;verticalAlign=top;childLayout=stackLayout;horizontal=1;startSize=26;horizontalStack=0;resizeParent=1;resizeParentMax=0;resizeLast=0;collapsible=1;marginBottom=0;whiteSpace=wrap;html=1;" vertex="1" parent="1">
          <mxGeometry x="1340" y="190" width="160" height="86" as="geometry" />
        </mxCell>
        <mxCell id="hYostSX41Q3Cd5_vRPfv-412" value="- trunkDiameter: float" style="text;strokeColor=none;fillColor=none;align=left;verticalAlign=top;spacingLeft=4;spacingRight=4;overflow=hidden;rotatable=0;points=[[0,0.5],[1,0.5]];portConstraint=eastwest;whiteSpace=wrap;html=1;" vertex="1" parent="hYostSX41Q3Cd5_vRPfv-411">
          <mxGeometry y="26" width="160" height="26" as="geometry" />
        </mxCell>
        <mxCell id="hYostSX41Q3Cd5_vRPfv-413" value="" style="line;strokeWidth=1;fillColor=none;align=left;verticalAlign=middle;spacingTop=-1;spacingLeft=3;spacingRight=3;rotatable=0;labelPosition=right;points=[];portConstraint=eastwest;strokeColor=inherit;" vertex="1" parent="hYostSX41Q3Cd5_vRPfv-411">
          <mxGeometry y="52" width="160" height="8" as="geometry" />
        </mxCell>
        <mxCell id="hYostSX41Q3Cd5_vRPfv-414" value="+ provideShade(): void" style="text;strokeColor=none;fillColor=none;align=left;verticalAlign=top;spacingLeft=4;spacingRight=4;overflow=hidden;rotatable=0;points=[[0,0.5],[1,0.5]];portConstraint=eastwest;whiteSpace=wrap;html=1;" vertex="1" parent="hYostSX41Q3Cd5_vRPfv-411">
          <mxGeometry y="60" width="160" height="26" as="geometry" />
        </mxCell>
        <mxCell id="hYostSX41Q3Cd5_vRPfv-415" value="Deciduous" style="swimlane;fontStyle=1;align=center;verticalAlign=top;childLayout=stackLayout;horizontal=1;startSize=26;horizontalStack=0;resizeParent=1;resizeParentMax=0;resizeLast=0;collapsible=1;marginBottom=0;whiteSpace=wrap;html=1;" vertex="1" parent="1">
          <mxGeometry x="1110" y="340" width="160" height="86" as="geometry" />
        </mxCell>
        <mxCell id="hYostSX41Q3Cd5_vRPfv-416" value="- leafFallSeason: String" style="text;strokeColor=none;fillColor=none;align=left;verticalAlign=top;spacingLeft=4;spacingRight=4;overflow=hidden;rotatable=0;points=[[0,0.5],[1,0.5]];portConstraint=eastwest;whiteSpace=wrap;html=1;" vertex="1" parent="hYostSX41Q3Cd5_vRPfv-415">
          <mxGeometry y="26" width="160" height="26" as="geometry" />
        </mxCell>
        <mxCell id="hYostSX41Q3Cd5_vRPfv-417" value="" style="line;strokeWidth=1;fillColor=none;align=left;verticalAlign=middle;spacingTop=-1;spacingLeft=3;spacingRight=3;rotatable=0;labelPosition=right;points=[];portConstraint=eastwest;strokeColor=inherit;" vertex="1" parent="hYostSX41Q3Cd5_vRPfv-415">
          <mxGeometry y="52" width="160" height="8" as="geometry" />
        </mxCell>
        <mxCell id="hYostSX41Q3Cd5_vRPfv-418" value="+ shedLeaves(): void" style="text;strokeColor=none;fillColor=none;align=left;verticalAlign=top;spacingLeft=4;spacingRight=4;overflow=hidden;rotatable=0;points=[[0,0.5],[1,0.5]];portConstraint=eastwest;whiteSpace=wrap;html=1;" vertex="1" parent="hYostSX41Q3Cd5_vRPfv-415">
          <mxGeometry y="60" width="160" height="26" as="geometry" />
        </mxCell>
        <mxCell id="hYostSX41Q3Cd5_vRPfv-419" value="Coniferous" style="swimlane;fontStyle=1;align=center;verticalAlign=top;childLayout=stackLayout;horizontal=1;startSize=26;horizontalStack=0;resizeParent=1;resizeParentMax=0;resizeLast=0;collapsible=1;marginBottom=0;whiteSpace=wrap;html=1;" vertex="1" parent="1">
          <mxGeometry x="1580" y="340" width="160" height="86" as="geometry" />
        </mxCell>
        <mxCell id="hYostSX41Q3Cd5_vRPfv-420" value="- needleLength: float" style="text;strokeColor=none;fillColor=none;align=left;verticalAlign=top;spacingLeft=4;spacingRight=4;overflow=hidden;rotatable=0;points=[[0,0.5],[1,0.5]];portConstraint=eastwest;whiteSpace=wrap;html=1;" vertex="1" parent="hYostSX41Q3Cd5_vRPfv-419">
          <mxGeometry y="26" width="160" height="26" as="geometry" />
        </mxCell>
        <mxCell id="hYostSX41Q3Cd5_vRPfv-421" value="" style="line;strokeWidth=1;fillColor=none;align=left;verticalAlign=middle;spacingTop=-1;spacingLeft=3;spacingRight=3;rotatable=0;labelPosition=right;points=[];portConstraint=eastwest;strokeColor=inherit;" vertex="1" parent="hYostSX41Q3Cd5_vRPfv-419">
          <mxGeometry y="52" width="160" height="8" as="geometry" />
        </mxCell>
        <mxCell id="hYostSX41Q3Cd5_vRPfv-422" value="+ produceCones(): void" style="text;strokeColor=none;fillColor=none;align=left;verticalAlign=top;spacingLeft=4;spacingRight=4;overflow=hidden;rotatable=0;points=[[0,0.5],[1,0.5]];portConstraint=eastwest;whiteSpace=wrap;html=1;" vertex="1" parent="hYostSX41Q3Cd5_vRPfv-419">
          <mxGeometry y="60" width="160" height="26" as="geometry" />
        </mxCell>
        <mxCell id="hYostSX41Q3Cd5_vRPfv-423" value="Oak&lt;div&gt;&lt;br&gt;&lt;/div&gt;" style="swimlane;fontStyle=1;align=center;verticalAlign=top;childLayout=stackLayout;horizontal=1;startSize=26;horizontalStack=0;resizeParent=1;resizeParentMax=0;resizeLast=0;collapsible=1;marginBottom=0;whiteSpace=wrap;html=1;" vertex="1" parent="1">
          <mxGeometry x="1000" y="480" width="160" height="86" as="geometry" />
        </mxCell>
        <mxCell id="hYostSX41Q3Cd5_vRPfv-424" value="- acornProduction: int" style="text;strokeColor=none;fillColor=none;align=left;verticalAlign=top;spacingLeft=4;spacingRight=4;overflow=hidden;rotatable=0;points=[[0,0.5],[1,0.5]];portConstraint=eastwest;whiteSpace=wrap;html=1;" vertex="1" parent="hYostSX41Q3Cd5_vRPfv-423">
          <mxGeometry y="26" width="160" height="26" as="geometry" />
        </mxCell>
        <mxCell id="hYostSX41Q3Cd5_vRPfv-425" value="" style="line;strokeWidth=1;fillColor=none;align=left;verticalAlign=middle;spacingTop=-1;spacingLeft=3;spacingRight=3;rotatable=0;labelPosition=right;points=[];portConstraint=eastwest;strokeColor=inherit;" vertex="1" parent="hYostSX41Q3Cd5_vRPfv-423">
          <mxGeometry y="52" width="160" height="8" as="geometry" />
        </mxCell>
        <mxCell id="hYostSX41Q3Cd5_vRPfv-426" value="+ produceAcorns(): void" style="text;strokeColor=none;fillColor=none;align=left;verticalAlign=top;spacingLeft=4;spacingRight=4;overflow=hidden;rotatable=0;points=[[0,0.5],[1,0.5]];portConstraint=eastwest;whiteSpace=wrap;html=1;" vertex="1" parent="hYostSX41Q3Cd5_vRPfv-423">
          <mxGeometry y="60" width="160" height="26" as="geometry" />
        </mxCell>
        <mxCell id="hYostSX41Q3Cd5_vRPfv-427" value="Maple" style="swimlane;fontStyle=1;align=center;verticalAlign=top;childLayout=stackLayout;horizontal=1;startSize=26;horizontalStack=0;resizeParent=1;resizeParentMax=0;resizeLast=0;collapsible=1;marginBottom=0;whiteSpace=wrap;html=1;" vertex="1" parent="1">
          <mxGeometry x="1220" y="480" width="160" height="86" as="geometry" />
        </mxCell>
        <mxCell id="hYostSX41Q3Cd5_vRPfv-428" value="- sapProduction: float" style="text;strokeColor=none;fillColor=none;align=left;verticalAlign=top;spacingLeft=4;spacingRight=4;overflow=hidden;rotatable=0;points=[[0,0.5],[1,0.5]];portConstraint=eastwest;whiteSpace=wrap;html=1;" vertex="1" parent="hYostSX41Q3Cd5_vRPfv-427">
          <mxGeometry y="26" width="160" height="26" as="geometry" />
        </mxCell>
        <mxCell id="hYostSX41Q3Cd5_vRPfv-429" value="" style="line;strokeWidth=1;fillColor=none;align=left;verticalAlign=middle;spacingTop=-1;spacingLeft=3;spacingRight=3;rotatable=0;labelPosition=right;points=[];portConstraint=eastwest;strokeColor=inherit;" vertex="1" parent="hYostSX41Q3Cd5_vRPfv-427">
          <mxGeometry y="52" width="160" height="8" as="geometry" />
        </mxCell>
        <mxCell id="hYostSX41Q3Cd5_vRPfv-430" value="+ produceSap(): void " style="text;strokeColor=none;fillColor=none;align=left;verticalAlign=top;spacingLeft=4;spacingRight=4;overflow=hidden;rotatable=0;points=[[0,0.5],[1,0.5]];portConstraint=eastwest;whiteSpace=wrap;html=1;" vertex="1" parent="hYostSX41Q3Cd5_vRPfv-427">
          <mxGeometry y="60" width="160" height="26" as="geometry" />
        </mxCell>
        <mxCell id="hYostSX41Q3Cd5_vRPfv-431" value="Pine" style="swimlane;fontStyle=1;align=center;verticalAlign=top;childLayout=stackLayout;horizontal=1;startSize=26;horizontalStack=0;resizeParent=1;resizeParentMax=0;resizeLast=0;collapsible=1;marginBottom=0;whiteSpace=wrap;html=1;" vertex="1" parent="1">
          <mxGeometry x="1460" y="480" width="160" height="86" as="geometry" />
        </mxCell>
        <mxCell id="hYostSX41Q3Cd5_vRPfv-432" value="- coneProduction: int" style="text;strokeColor=none;fillColor=none;align=left;verticalAlign=top;spacingLeft=4;spacingRight=4;overflow=hidden;rotatable=0;points=[[0,0.5],[1,0.5]];portConstraint=eastwest;whiteSpace=wrap;html=1;" vertex="1" parent="hYostSX41Q3Cd5_vRPfv-431">
          <mxGeometry y="26" width="160" height="26" as="geometry" />
        </mxCell>
        <mxCell id="hYostSX41Q3Cd5_vRPfv-433" value="" style="line;strokeWidth=1;fillColor=none;align=left;verticalAlign=middle;spacingTop=-1;spacingLeft=3;spacingRight=3;rotatable=0;labelPosition=right;points=[];portConstraint=eastwest;strokeColor=inherit;" vertex="1" parent="hYostSX41Q3Cd5_vRPfv-431">
          <mxGeometry y="52" width="160" height="8" as="geometry" />
        </mxCell>
        <mxCell id="hYostSX41Q3Cd5_vRPfv-434" value="+ growCones(): void" style="text;strokeColor=none;fillColor=none;align=left;verticalAlign=top;spacingLeft=4;spacingRight=4;overflow=hidden;rotatable=0;points=[[0,0.5],[1,0.5]];portConstraint=eastwest;whiteSpace=wrap;html=1;" vertex="1" parent="hYostSX41Q3Cd5_vRPfv-431">
          <mxGeometry y="60" width="160" height="26" as="geometry" />
        </mxCell>
        <mxCell id="hYostSX41Q3Cd5_vRPfv-435" value="Spruce" style="swimlane;fontStyle=1;align=center;verticalAlign=top;childLayout=stackLayout;horizontal=1;startSize=26;horizontalStack=0;resizeParent=1;resizeParentMax=0;resizeLast=0;collapsible=1;marginBottom=0;whiteSpace=wrap;html=1;" vertex="1" parent="1">
          <mxGeometry x="1700" y="480" width="160" height="86" as="geometry" />
        </mxCell>
        <mxCell id="hYostSX41Q3Cd5_vRPfv-436" value="- branchDensity: float" style="text;strokeColor=none;fillColor=none;align=left;verticalAlign=top;spacingLeft=4;spacingRight=4;overflow=hidden;rotatable=0;points=[[0,0.5],[1,0.5]];portConstraint=eastwest;whiteSpace=wrap;html=1;" vertex="1" parent="hYostSX41Q3Cd5_vRPfv-435">
          <mxGeometry y="26" width="160" height="26" as="geometry" />
        </mxCell>
        <mxCell id="hYostSX41Q3Cd5_vRPfv-437" value="" style="line;strokeWidth=1;fillColor=none;align=left;verticalAlign=middle;spacingTop=-1;spacingLeft=3;spacingRight=3;rotatable=0;labelPosition=right;points=[];portConstraint=eastwest;strokeColor=inherit;" vertex="1" parent="hYostSX41Q3Cd5_vRPfv-435">
          <mxGeometry y="52" width="160" height="8" as="geometry" />
        </mxCell>
        <mxCell id="hYostSX41Q3Cd5_vRPfv-438" value="+ growBranches(): void" style="text;strokeColor=none;fillColor=none;align=left;verticalAlign=top;spacingLeft=4;spacingRight=4;overflow=hidden;rotatable=0;points=[[0,0.5],[1,0.5]];portConstraint=eastwest;whiteSpace=wrap;html=1;" vertex="1" parent="hYostSX41Q3Cd5_vRPfv-435">
          <mxGeometry y="60" width="160" height="26" as="geometry" />
        </mxCell>
        <mxCell id="hYostSX41Q3Cd5_vRPfv-439" value="" style="endArrow=classic;html=1;rounded=0;exitX=0.5;exitY=0;exitDx=0;exitDy=0;entryX=0;entryY=0.5;entryDx=0;entryDy=0;" edge="1" parent="1" source="hYostSX41Q3Cd5_vRPfv-415" target="hYostSX41Q3Cd5_vRPfv-414">
          <mxGeometry width="50" height="50" relative="1" as="geometry">
            <mxPoint x="1280" y="410" as="sourcePoint" />
            <mxPoint x="1330" y="360" as="targetPoint" />
          </mxGeometry>
        </mxCell>
        <mxCell id="hYostSX41Q3Cd5_vRPfv-440" value="" style="endArrow=classic;html=1;rounded=0;exitX=0.5;exitY=0;exitDx=0;exitDy=0;entryX=1;entryY=0.5;entryDx=0;entryDy=0;" edge="1" parent="1" source="hYostSX41Q3Cd5_vRPfv-419" target="hYostSX41Q3Cd5_vRPfv-414">
          <mxGeometry width="50" height="50" relative="1" as="geometry">
            <mxPoint x="1480" y="430" as="sourcePoint" />
            <mxPoint x="1530" y="380" as="targetPoint" />
          </mxGeometry>
        </mxCell>
        <mxCell id="hYostSX41Q3Cd5_vRPfv-441" value="" style="endArrow=classic;html=1;rounded=0;exitX=0.5;exitY=0;exitDx=0;exitDy=0;entryX=0;entryY=0.5;entryDx=0;entryDy=0;" edge="1" parent="1" source="hYostSX41Q3Cd5_vRPfv-431" target="hYostSX41Q3Cd5_vRPfv-422">
          <mxGeometry width="50" height="50" relative="1" as="geometry">
            <mxPoint x="1480" y="480" as="sourcePoint" />
            <mxPoint x="1530" y="430" as="targetPoint" />
          </mxGeometry>
        </mxCell>
        <mxCell id="hYostSX41Q3Cd5_vRPfv-442" value="" style="endArrow=classic;html=1;rounded=0;exitX=0.5;exitY=0;exitDx=0;exitDy=0;entryX=1;entryY=0.5;entryDx=0;entryDy=0;" edge="1" parent="1" source="hYostSX41Q3Cd5_vRPfv-435" target="hYostSX41Q3Cd5_vRPfv-422">
          <mxGeometry width="50" height="50" relative="1" as="geometry">
            <mxPoint x="1480" y="480" as="sourcePoint" />
            <mxPoint x="1530" y="430" as="targetPoint" />
          </mxGeometry>
        </mxCell>
        <mxCell id="hYostSX41Q3Cd5_vRPfv-443" value="" style="endArrow=classic;html=1;rounded=0;exitX=0.5;exitY=0;exitDx=0;exitDy=0;entryX=0;entryY=0.5;entryDx=0;entryDy=0;" edge="1" parent="1" source="hYostSX41Q3Cd5_vRPfv-423" target="hYostSX41Q3Cd5_vRPfv-418">
          <mxGeometry width="50" height="50" relative="1" as="geometry">
            <mxPoint x="1150" y="480" as="sourcePoint" />
            <mxPoint x="1200" y="430" as="targetPoint" />
          </mxGeometry>
        </mxCell>
        <mxCell id="hYostSX41Q3Cd5_vRPfv-444" value="" style="endArrow=classic;html=1;rounded=0;exitX=0.5;exitY=0;exitDx=0;exitDy=0;entryX=1;entryY=0.5;entryDx=0;entryDy=0;" edge="1" parent="1" source="hYostSX41Q3Cd5_vRPfv-427" target="hYostSX41Q3Cd5_vRPfv-418">
          <mxGeometry width="50" height="50" relative="1" as="geometry">
            <mxPoint x="1150" y="480" as="sourcePoint" />
            <mxPoint x="1200" y="430" as="targetPoint" />
          </mxGeometry>
        </mxCell>
        <mxCell id="hYostSX41Q3Cd5_vRPfv-445" style="edgeStyle=orthogonalEdgeStyle;rounded=0;orthogonalLoop=1;jettySize=auto;html=1;entryX=0.995;entryY=0.071;entryDx=0;entryDy=0;entryPerimeter=0;" edge="1" parent="1" source="hYostSX41Q3Cd5_vRPfv-411" target="hYostSX41Q3Cd5_vRPfv-337">
          <mxGeometry relative="1" as="geometry" />
        </mxCell>
        <mxCell id="hYostSX41Q3Cd5_vRPfv-446" value="1" style="text;html=1;align=center;verticalAlign=middle;resizable=0;points=[];autosize=1;strokeColor=none;fillColor=none;" vertex="1" parent="1">
          <mxGeometry x="315" y="110" width="30" height="30" as="geometry" />
        </mxCell>
        <mxCell id="hYostSX41Q3Cd5_vRPfv-447" value="0..*" style="text;html=1;align=center;verticalAlign=middle;resizable=0;points=[];autosize=1;strokeColor=none;fillColor=none;" vertex="1" parent="1">
          <mxGeometry x="200" y="168" width="40" height="30" as="geometry" />
        </mxCell>
        <mxCell id="hYostSX41Q3Cd5_vRPfv-448" value="0..*" style="text;html=1;align=center;verticalAlign=middle;resizable=0;points=[];autosize=1;strokeColor=none;fillColor=none;" vertex="1" parent="1">
          <mxGeometry x="390" y="168" width="40" height="30" as="geometry" />
        </mxCell>
        <mxCell id="hYostSX41Q3Cd5_vRPfv-449" value="0..*" style="text;html=1;align=center;verticalAlign=middle;resizable=0;points=[];autosize=1;strokeColor=none;fillColor=none;" vertex="1" parent="1">
          <mxGeometry x="610" y="168" width="40" height="30" as="geometry" />
        </mxCell>
        <mxCell id="hYostSX41Q3Cd5_vRPfv-450" value="0..*" style="text;html=1;align=center;verticalAlign=middle;resizable=0;points=[];autosize=1;strokeColor=none;fillColor=none;" vertex="1" parent="1">
          <mxGeometry x="820" y="168" width="40" height="30" as="geometry" />
        </mxCell>
        <mxCell id="hYostSX41Q3Cd5_vRPfv-451" value="0..*" style="text;html=1;align=center;verticalAlign=middle;resizable=0;points=[];autosize=1;strokeColor=none;fillColor=none;" vertex="1" parent="1">
          <mxGeometry x="-10" y="168" width="40" height="30" as="geometry" />
        </mxCell>
        <mxCell id="hYostSX41Q3Cd5_vRPfv-452" value="1" style="text;html=1;align=center;verticalAlign=middle;resizable=0;points=[];autosize=1;strokeColor=none;fillColor=none;" vertex="1" parent="1">
          <mxGeometry x="315" y="80" width="30" height="30" as="geometry" />
        </mxCell>
        <mxCell id="hYostSX41Q3Cd5_vRPfv-453" value="1" style="text;html=1;align=center;verticalAlign=middle;resizable=0;points=[];autosize=1;strokeColor=none;fillColor=none;" vertex="1" parent="1">
          <mxGeometry x="505" y="80" width="30" height="30" as="geometry" />
        </mxCell>
        <mxCell id="hYostSX41Q3Cd5_vRPfv-454" value="1" style="text;html=1;align=center;verticalAlign=middle;resizable=0;points=[];autosize=1;strokeColor=none;fillColor=none;" vertex="1" parent="1">
          <mxGeometry x="505" y="110" width="30" height="30" as="geometry" />
        </mxCell>
        <mxCell id="hYostSX41Q3Cd5_vRPfv-455" value="1" style="text;html=1;align=center;verticalAlign=middle;resizable=0;points=[];autosize=1;strokeColor=none;fillColor=none;" vertex="1" parent="1">
          <mxGeometry x="420" y="138" width="30" height="30" as="geometry" />
        </mxCell>
        <mxCell id="hYostSX41Q3Cd5_vRPfv-456" value="0..*" style="text;html=1;align=center;verticalAlign=middle;resizable=0;points=[];autosize=1;strokeColor=none;fillColor=none;" vertex="1" parent="1">
          <mxGeometry x="-10" y="320" width="40" height="30" as="geometry" />
        </mxCell>
        <mxCell id="hYostSX41Q3Cd5_vRPfv-457" value="1" style="text;html=1;align=center;verticalAlign=middle;resizable=0;points=[];autosize=1;strokeColor=none;fillColor=none;" vertex="1" parent="1">
          <mxGeometry x="-5" y="284" width="30" height="30" as="geometry" />
        </mxCell>
        <mxCell id="hYostSX41Q3Cd5_vRPfv-458" value="1" style="text;html=1;align=center;verticalAlign=middle;resizable=0;points=[];autosize=1;strokeColor=none;fillColor=none;" vertex="1" parent="1">
          <mxGeometry x="205" y="294" width="30" height="30" as="geometry" />
        </mxCell>
        <mxCell id="hYostSX41Q3Cd5_vRPfv-459" value="1" style="text;html=1;align=center;verticalAlign=middle;resizable=0;points=[];autosize=1;strokeColor=none;fillColor=none;" vertex="1" parent="1">
          <mxGeometry x="420" y="284" width="30" height="30" as="geometry" />
        </mxCell>
        <mxCell id="hYostSX41Q3Cd5_vRPfv-460" value="1" style="text;html=1;align=center;verticalAlign=middle;resizable=0;points=[];autosize=1;strokeColor=none;fillColor=none;" vertex="1" parent="1">
          <mxGeometry x="630" y="284" width="30" height="30" as="geometry" />
        </mxCell>
        <mxCell id="hYostSX41Q3Cd5_vRPfv-462" value="1" style="text;html=1;align=center;verticalAlign=middle;resizable=0;points=[];autosize=1;strokeColor=none;fillColor=none;" vertex="1" parent="1">
          <mxGeometry x="840" y="284" width="30" height="30" as="geometry" />
        </mxCell>
        <mxCell id="hYostSX41Q3Cd5_vRPfv-463" value="0..*" style="text;html=1;align=center;verticalAlign=middle;resizable=0;points=[];autosize=1;strokeColor=none;fillColor=none;" vertex="1" parent="1">
          <mxGeometry x="200" y="320" width="40" height="30" as="geometry" />
        </mxCell>
        <mxCell id="hYostSX41Q3Cd5_vRPfv-464" value="0..*" style="text;html=1;align=center;verticalAlign=middle;resizable=0;points=[];autosize=1;strokeColor=none;fillColor=none;" vertex="1" parent="1">
          <mxGeometry x="415" y="320" width="40" height="30" as="geometry" />
        </mxCell>
        <mxCell id="hYostSX41Q3Cd5_vRPfv-465" value="0..*" style="text;html=1;align=center;verticalAlign=middle;resizable=0;points=[];autosize=1;strokeColor=none;fillColor=none;" vertex="1" parent="1">
          <mxGeometry x="630" y="320" width="40" height="30" as="geometry" />
        </mxCell>
        <mxCell id="hYostSX41Q3Cd5_vRPfv-466" value="0..*" style="text;html=1;align=center;verticalAlign=middle;resizable=0;points=[];autosize=1;strokeColor=none;fillColor=none;" vertex="1" parent="1">
          <mxGeometry x="840" y="320" width="40" height="30" as="geometry" />
        </mxCell>
        <mxCell id="hYostSX41Q3Cd5_vRPfv-467" value="1" style="text;html=1;align=center;verticalAlign=middle;resizable=0;points=[];autosize=1;strokeColor=none;fillColor=none;" vertex="1" parent="1">
          <mxGeometry x="315" y="40" width="30" height="30" as="geometry" />
        </mxCell>
        <mxCell id="hYostSX41Q3Cd5_vRPfv-468" value="1" style="text;html=1;align=center;verticalAlign=middle;resizable=0;points=[];autosize=1;strokeColor=none;fillColor=none;" vertex="1" parent="1">
          <mxGeometry x="500" y="40" width="30" height="30" as="geometry" />
        </mxCell>
        <mxCell id="hYostSX41Q3Cd5_vRPfv-469" value="1" style="text;html=1;align=center;verticalAlign=middle;resizable=0;points=[];autosize=1;strokeColor=none;fillColor=none;" vertex="1" parent="1">
          <mxGeometry x="-480" y="254" width="30" height="30" as="geometry" />
        </mxCell>
        <mxCell id="hYostSX41Q3Cd5_vRPfv-470" value="0..*" style="text;html=1;align=center;verticalAlign=middle;resizable=0;points=[];autosize=1;strokeColor=none;fillColor=none;" vertex="1" parent="1">
          <mxGeometry x="-490" y="320" width="40" height="30" as="geometry" />
        </mxCell>
        <mxCell id="hYostSX41Q3Cd5_vRPfv-471" value="0..*" style="text;html=1;align=center;verticalAlign=middle;resizable=0;points=[];autosize=1;strokeColor=none;fillColor=none;" vertex="1" parent="1">
          <mxGeometry x="-260" y="320" width="40" height="30" as="geometry" />
        </mxCell>
        <mxCell id="hYostSX41Q3Cd5_vRPfv-472" value="0..*" style="text;html=1;align=center;verticalAlign=middle;resizable=0;points=[];autosize=1;strokeColor=none;fillColor=none;" vertex="1" parent="1">
          <mxGeometry x="-370" y="168" width="40" height="30" as="geometry" />
        </mxCell>
        <mxCell id="hYostSX41Q3Cd5_vRPfv-473" value="1" style="text;html=1;align=center;verticalAlign=middle;resizable=0;points=[];autosize=1;strokeColor=none;fillColor=none;" vertex="1" parent="1">
          <mxGeometry x="-290" y="254" width="30" height="30" as="geometry" />
        </mxCell>
        <mxCell id="hYostSX41Q3Cd5_vRPfv-474" value="0..*" style="text;html=1;align=center;verticalAlign=middle;resizable=0;points=[];autosize=1;strokeColor=none;fillColor=none;" vertex="1" parent="1">
          <mxGeometry x="1390" y="168" width="40" height="30" as="geometry" />
        </mxCell>
        <mxCell id="hYostSX41Q3Cd5_vRPfv-475" value="1" style="text;html=1;align=center;verticalAlign=middle;resizable=0;points=[];autosize=1;strokeColor=none;fillColor=none;" vertex="1" parent="1">
          <mxGeometry x="1310" y="246" width="30" height="30" as="geometry" />
        </mxCell>
        <mxCell id="hYostSX41Q3Cd5_vRPfv-476" value="1" style="text;html=1;align=center;verticalAlign=middle;resizable=0;points=[];autosize=1;strokeColor=none;fillColor=none;" vertex="1" parent="1">
          <mxGeometry x="1500" y="240" width="30" height="30" as="geometry" />
        </mxCell>
        <mxCell id="hYostSX41Q3Cd5_vRPfv-477" value="0..*" style="text;html=1;align=center;verticalAlign=middle;resizable=0;points=[];autosize=1;strokeColor=none;fillColor=none;" vertex="1" parent="1">
          <mxGeometry x="1160" y="320" width="40" height="30" as="geometry" />
        </mxCell>
        <mxCell id="hYostSX41Q3Cd5_vRPfv-478" value="0..*" style="text;html=1;align=center;verticalAlign=middle;resizable=0;points=[];autosize=1;strokeColor=none;fillColor=none;" vertex="1" parent="1">
          <mxGeometry x="1650" y="320" width="40" height="30" as="geometry" />
        </mxCell>
        <mxCell id="hYostSX41Q3Cd5_vRPfv-479" value="1" style="text;html=1;align=center;verticalAlign=middle;resizable=0;points=[];autosize=1;strokeColor=none;fillColor=none;" vertex="1" parent="1">
          <mxGeometry x="1270" y="396" width="30" height="30" as="geometry" />
        </mxCell>
        <mxCell id="hYostSX41Q3Cd5_vRPfv-480" value="0..*" style="text;html=1;align=center;verticalAlign=middle;resizable=0;points=[];autosize=1;strokeColor=none;fillColor=none;" vertex="1" parent="1">
          <mxGeometry x="1290" y="458" width="40" height="30" as="geometry" />
        </mxCell>
        <mxCell id="hYostSX41Q3Cd5_vRPfv-481" value="0..*" style="text;html=1;align=center;verticalAlign=middle;resizable=0;points=[];autosize=1;strokeColor=none;fillColor=none;" vertex="1" parent="1">
          <mxGeometry x="1050" y="458" width="40" height="30" as="geometry" />
        </mxCell>
        <mxCell id="hYostSX41Q3Cd5_vRPfv-482" value="1" style="text;html=1;align=center;verticalAlign=middle;resizable=0;points=[];autosize=1;strokeColor=none;fillColor=none;" vertex="1" parent="1">
          <mxGeometry x="1080" y="396" width="30" height="30" as="geometry" />
        </mxCell>
        <mxCell id="hYostSX41Q3Cd5_vRPfv-483" value="0..*" style="text;html=1;align=center;verticalAlign=middle;resizable=0;points=[];autosize=1;strokeColor=none;fillColor=none;" vertex="1" parent="1">
          <mxGeometry x="1510" y="458" width="40" height="30" as="geometry" />
        </mxCell>
        <mxCell id="hYostSX41Q3Cd5_vRPfv-484" value="0..*" style="text;html=1;align=center;verticalAlign=middle;resizable=0;points=[];autosize=1;strokeColor=none;fillColor=none;" vertex="1" parent="1">
          <mxGeometry x="1770" y="458" width="40" height="30" as="geometry" />
        </mxCell>
      </root>
    </mxGraphModel>
  </diagram>
</mxfile>
